<?xml version="1.0" encoding="iso-8859-1"?>
<!-- Generator: Adobe Illustrator 19.0.0, SVG Export Plug-In . SVG Version: 6.00 Build 0)  -->
<svg version="1.1" id="Capa_1" xmlns="http://www.w3.org/2000/svg" xmlns:xlink="http://www.w3.org/1999/xlink" x="0px" y="0px"
	 viewBox="0 0 512 512" style="enable-background:new 0 0 512 512;" xml:space="preserve">
<g>
	<g>
		<path d="M281.436,69h-2.935V49h2.5c4.142,0,7.5-3.358,7.5-7.5v-34c0-4.142-3.358-7.5-7.5-7.5h-50c-4.142,0-7.5,3.358-7.5,7.5v34
			c0,4.142,3.358,7.5,7.5,7.5h2.5v20h-2.935c-39.737,0-72.065,32.329-72.065,72.065v18.685c0,4.142,3.358,7.5,7.5,7.5
			c4.142,0,7.5-3.358,7.5-7.5v-18.685c0-31.465,25.6-57.065,57.065-57.065h50.869c31.466,0,57.065,25.6,57.065,57.065v213.993h-165
			V191.75c0-4.142-3.358-7.5-7.5-7.5c-4.142,0-7.5,3.358-7.5,7.5V504.5c0,4.142,3.358,7.5,7.5,7.5h180c4.142,0,7.5-3.358,7.5-7.5
			v-24.833c0-4.142-3.358-7.5-7.5-7.5c-4.142,0-7.5,3.358-7.5,7.5V497h-165v-96.941h18.75c4.142,0,7.5-3.358,7.5-7.5
			c0-4.142-3.358-7.5-7.5-7.5h-18.749v-15h165v15h-114.25c-4.142,0-7.5,3.358-7.5,7.5c0,4.142,3.358,7.5,7.5,7.5h114.25v48.109
			c0,4.142,3.358,7.5,7.5,7.5c4.142,0,7.5-3.358,7.5-7.5V144.333v-3.268C353.501,101.329,321.172,69,281.436,69z M263.501,69h-15V49
			h15V69z M273.501,34h-35V15h35V34z"/>
	</g>
</g>
<g>
	<g>
		<path d="M256.001,215.516c-35.014,0-63.5,28.486-63.5,63.5c0,35.014,28.486,63.5,63.5,63.5c35.014,0,63.5-28.486,63.5-63.5
			C319.501,244.002,291.015,215.516,256.001,215.516z M256.001,327.516c-26.743,0-48.5-21.757-48.5-48.5s21.757-48.5,48.5-48.5
			s48.5,21.757,48.5,48.5S282.744,327.516,256.001,327.516z"/>
	</g>
</g>
<g>
</g>
<g>
</g>
<g>
</g>
<g>
</g>
<g>
</g>
<g>
</g>
<g>
</g>
<g>
</g>
<g>
</g>
<g>
</g>
<g>
</g>
<g>
</g>
<g>
</g>
<g>
</g>
<g>
</g>
</svg>
